<svg width="35" height="35" viewBox="0 0 35 35" fill="none" xmlns="http://www.w3.org/2000/svg">
<path d="M0.96057 0.96057C1.57588 0.346027 2.40995 0.000844994 3.27959 0.000844994C4.14923 0.000844994 4.9833 0.346027 5.59861 0.96057L17.5 12.8576L29.4014 0.96057C29.7059 0.656032 30.0675 0.414459 30.4654 0.249644C30.8633 0.0848288 31.2897 8.48977e-09 31.7204 0C32.1511 -8.48976e-09 32.5776 0.0848288 32.9755 0.249644C33.3733 0.414459 33.7349 0.656032 34.0394 0.96057C34.344 1.26511 34.5855 1.62665 34.7504 2.02454C34.9152 2.42244 35 2.84891 35 3.27959C35 3.71027 34.9152 4.13674 34.7504 4.53464C34.5855 4.93253 34.344 5.29407 34.0394 5.59861L22.1424 17.5L34.0394 29.4014C34.6545 30.0164 35 30.8506 35 31.7204C35 32.5902 34.6545 33.4244 34.0394 34.0394C33.4244 34.6545 32.5902 35 31.7204 35C30.8506 35 30.0164 34.6545 29.4014 34.0394L17.5 22.1424L5.59861 34.0394C4.98357 34.6545 4.14939 35 3.27959 35C2.40979 35 1.57561 34.6545 0.96057 34.0394C0.345527 33.4244 0 32.5902 0 31.7204C0 30.8506 0.345527 30.0164 0.96057 29.4014L12.8576 17.5L0.96057 5.59861C0.346027 4.9833 0.000844994 4.14923 0.000844994 3.27959C0.000844994 2.40995 0.346027 1.57588 0.96057 0.96057Z" fill="black"/>
</svg>
